<svg width="210" height="60" viewBox="0 0 210 60" fill="none" xmlns="http://www.w3.org/2000/svg">
<g clip-path="url(#clip0_17_5)">
<path d="M209.08 53.986C209.08 54.7763 208.924 55.559 208.622 56.2891C208.319 57.0192 207.875 57.6825 207.316 58.241C206.757 58.7995 206.093 59.2424 205.363 59.5442C204.632 59.846 203.849 60.0009 203.059 60H6.028C4.43121 60.0016 2.89916 59.3689 1.76875 58.2411C0.638339 57.1133 0.00212048 55.5828 0 53.986V6.01999C0.00211935 4.42246 0.638083 2.89107 1.76826 1.76201C2.89845 0.632951 4.43048 -0.00148571 6.028 -0.00201416H203.058C203.849 -0.00201417 204.632 0.153757 205.362 0.456403C206.093 0.759049 206.757 1.20264 207.316 1.76185C207.875 2.32106 208.318 2.98492 208.621 3.71554C208.923 4.44616 209.079 5.22921 209.079 6.01999V53.983L209.08 53.986Z" fill="white"/>
<path d="M209.08 53.986C209.08 54.7763 208.924 55.559 208.622 56.2891C208.319 57.0192 207.875 57.6825 207.316 58.241C206.757 58.7995 206.093 59.2424 205.363 59.5442C204.632 59.846 203.849 60.0009 203.059 60H6.028C4.43121 60.0016 2.89916 59.3689 1.76875 58.2411C0.638339 57.1133 0.00212048 55.5828 0 53.986V6.01999C0.00211935 4.42246 0.638083 2.89107 1.76826 1.76201C2.89845 0.632951 4.43048 -0.00148571 6.028 -0.00201416H203.058C203.849 -0.00201417 204.632 0.153757 205.362 0.456403C206.093 0.759049 206.757 1.20264 207.316 1.76185C207.875 2.32106 208.318 2.98492 208.621 3.71554C208.923 4.44616 209.079 5.22921 209.079 6.01999V53.983L209.08 53.986Z" fill="black"/>
<path d="M43.7391 26C43.6898 25.3845 43.459 24.9044 43.0466 24.5597C42.6404 24.215 42.0218 24.0426 41.1908 24.0426C40.6614 24.0426 40.2275 24.1072 39.8889 24.2365C39.5566 24.3596 39.3103 24.5289 39.1503 24.7443C38.9903 24.9598 38.9072 25.206 38.901 25.483C38.8887 25.7107 38.9287 25.9169 39.021 26.1016C39.1195 26.2801 39.2734 26.4432 39.4827 26.5909C39.692 26.7325 39.9597 26.8617 40.286 26.9787C40.6122 27.0956 41 27.2003 41.4493 27.2926L43.0004 27.625C44.0468 27.8466 44.9424 28.139 45.6872 28.5021C46.432 28.8653 47.0414 29.2931 47.5154 29.7855C47.9893 30.2718 48.3371 30.8196 48.5587 31.429C48.7864 32.0384 48.9034 32.7031 48.9095 33.4233C48.9034 34.6667 48.5925 35.7192 47.977 36.581C47.3615 37.4427 46.4813 38.0982 45.3364 38.5476C44.1977 38.9969 42.8281 39.2216 41.2277 39.2216C39.5843 39.2216 38.1501 38.9785 36.9252 38.4922C35.7064 38.0059 34.7585 37.258 34.0814 36.2486C33.4105 35.233 33.0719 33.9342 33.0658 32.3523H37.9408C37.9716 32.9309 38.1162 33.4171 38.3747 33.8111C38.6333 34.205 38.9964 34.5036 39.4642 34.7067C39.9382 34.9098 40.5014 35.0114 41.1539 35.0114C41.7017 35.0114 42.1602 34.9437 42.5296 34.8082C42.8989 34.6728 43.1789 34.4851 43.3698 34.245C43.5606 34.005 43.6591 33.7311 43.6652 33.4233C43.6591 33.134 43.5637 32.8816 43.379 32.6662C43.2005 32.4446 42.905 32.2476 42.4926 32.0753C42.0802 31.8968 41.5232 31.7306 40.8215 31.5767L38.9379 31.1705C37.2637 30.8073 35.9434 30.201 34.977 29.3516C34.0168 28.496 33.5397 27.3295 33.5459 25.8523C33.5397 24.652 33.8598 23.6025 34.5061 22.7038C35.1586 21.799 36.0603 21.0942 37.2114 20.5895C38.3686 20.0848 39.695 19.8324 41.1908 19.8324C42.7173 19.8324 44.0376 20.0878 45.1517 20.5987C46.2658 21.1096 47.1245 21.8298 47.7277 22.7592C48.3371 23.6825 48.6449 24.7628 48.651 26H43.7391ZM56.0328 31.0227V39H50.9362V20.0909H55.8481V27.5142H55.9958C56.3159 26.6094 56.8483 25.9046 57.5931 25.3999C58.3379 24.889 59.2335 24.6335 60.2799 24.6335C61.2832 24.6335 62.1542 24.8613 62.8928 25.3168C63.6376 25.7723 64.2132 26.4001 64.6194 27.2003C65.0318 28.0005 65.2349 28.9176 65.2288 29.9517V39H60.1322V31.0227C60.1383 30.321 59.9629 29.7701 59.6059 29.37C59.2551 28.9699 58.7534 28.7699 58.1009 28.7699C57.6885 28.7699 57.3254 28.8622 57.0115 29.0469C56.7037 29.2254 56.4636 29.4839 56.2913 29.8224C56.1251 30.1548 56.0389 30.5549 56.0328 31.0227ZM74.5771 39.2585C73.0383 39.2585 71.7211 38.9538 70.6254 38.3445C69.5298 37.7289 68.6896 36.8733 68.1048 35.7777C67.5201 34.6759 67.2277 33.3987 67.2277 31.946C67.2277 30.4934 67.5201 29.2192 68.1048 28.1236C68.6896 27.0218 69.5298 26.1662 70.6254 25.5568C71.7211 24.9413 73.0383 24.6335 74.5771 24.6335C76.116 24.6335 77.4332 24.9413 78.5289 25.5568C79.6245 26.1662 80.4647 27.0218 81.0495 28.1236C81.6342 29.2192 81.9266 30.4934 81.9266 31.946C81.9266 33.3987 81.6342 34.6759 81.0495 35.7777C80.4647 36.8733 79.6245 37.7289 78.5289 38.3445C77.4332 38.9538 76.116 39.2585 74.5771 39.2585ZM74.6141 35.4915C75.045 35.4915 75.4173 35.3468 75.7313 35.0575C76.0452 34.7682 76.2883 34.3558 76.4607 33.8203C76.633 33.2848 76.7192 32.6477 76.7192 31.9091C76.7192 31.1643 76.633 30.5272 76.4607 29.9979C76.2883 29.4624 76.0452 29.05 75.7313 28.7607C75.4173 28.4714 75.045 28.3267 74.6141 28.3267C74.1586 28.3267 73.7677 28.4714 73.4415 28.7607C73.1153 29.05 72.866 29.4624 72.6936 29.9979C72.5213 30.5272 72.4351 31.1643 72.4351 31.9091C72.4351 32.6477 72.5213 33.2848 72.6936 33.8203C72.866 34.3558 73.1153 34.7682 73.4415 35.0575C73.7677 35.3468 74.1586 35.4915 74.6141 35.4915ZM83.9948 44.3182V24.8182H89.0544V27.2926H89.1652C89.3499 26.8125 89.6207 26.3724 89.9777 25.9723C90.3347 25.5661 90.7779 25.2429 91.3073 25.0028C91.8366 24.7566 92.4521 24.6335 93.1539 24.6335C94.0895 24.6335 94.9789 24.8828 95.8222 25.3814C96.6716 25.88 97.361 26.6648 97.8904 27.7358C98.4259 28.8068 98.6936 30.1979 98.6936 31.9091C98.6936 33.5464 98.4382 34.9036 97.9273 35.9808C97.4226 37.058 96.7455 37.8613 95.896 38.3906C95.0528 38.92 94.1264 39.1847 93.1169 39.1847C92.4521 39.1847 91.8582 39.0769 91.335 38.8615C90.8179 38.6399 90.3747 38.3414 90.0054 37.9659C89.6423 37.5843 89.3622 37.1534 89.1652 36.6733H89.0914V44.3182H83.9948ZM88.9806 31.9091C88.9806 32.5985 89.0698 33.1955 89.2483 33.7003C89.433 34.1989 89.6915 34.5866 90.0239 34.8636C90.3624 35.1345 90.7656 35.2699 91.2334 35.2699C91.7012 35.2699 92.0982 35.1375 92.4244 34.8729C92.7568 34.602 93.0092 34.2173 93.1816 33.7188C93.3601 33.214 93.4493 32.6108 93.4493 31.9091C93.4493 31.2074 93.3601 30.6072 93.1816 30.1087C93.0092 29.6039 92.7568 29.2192 92.4244 28.9545C92.0982 28.6837 91.7012 28.5483 91.2334 28.5483C90.7656 28.5483 90.3624 28.6837 90.0239 28.9545C89.6915 29.2192 89.433 29.6039 89.2483 30.1087C89.0698 30.6072 88.9806 31.2074 88.9806 31.9091ZM122.295 20.0909V39H118.011L111.179 29.0653H111.068V39H105.935V20.0909H110.293L117.014 29.9886H117.162V20.0909H122.295ZM131.63 39.2585C130.091 39.2585 128.774 38.9538 127.678 38.3445C126.583 37.7289 125.742 36.8733 125.158 35.7777C124.573 34.6759 124.28 33.3987 124.28 31.946C124.28 30.4934 124.573 29.2192 125.158 28.1236C125.742 27.0218 126.583 26.1662 127.678 25.5568C128.774 24.9413 130.091 24.6335 131.63 24.6335C133.169 24.6335 134.486 24.9413 135.582 25.5568C136.677 26.1662 137.517 27.0218 138.102 28.1236C138.687 29.2192 138.979 30.4934 138.979 31.946C138.979 33.3987 138.687 34.6759 138.102 35.7777C137.517 36.8733 136.677 37.7289 135.582 38.3445C134.486 38.9538 133.169 39.2585 131.63 39.2585ZM131.667 35.4915C132.098 35.4915 132.47 35.3468 132.784 35.0575C133.098 34.7682 133.341 34.3558 133.513 33.8203C133.686 33.2848 133.772 32.6477 133.772 31.9091C133.772 31.1643 133.686 30.5272 133.513 29.9979C133.341 29.4624 133.098 29.05 132.784 28.7607C132.47 28.4714 132.098 28.3267 131.667 28.3267C131.211 28.3267 130.82 28.4714 130.494 28.7607C130.168 29.05 129.919 29.4624 129.746 29.9979C129.574 30.5272 129.488 31.1643 129.488 31.9091C129.488 32.6477 129.574 33.2848 129.746 33.8203C129.919 34.3558 130.168 34.7682 130.494 35.0575C130.82 35.3468 131.211 35.4915 131.667 35.4915ZM143.305 39L139.759 24.8182H144.856L146.481 33.4602H146.592L148.402 24.8182H153.35L155.234 33.3864H155.345L156.896 24.8182H161.992L158.447 39H152.944L150.95 31.392H150.802L148.808 39H143.305ZM174.632 20.0909L174.152 33.0909H169.942L169.462 20.0909H174.632ZM172.047 39.2955C171.333 39.2955 170.721 39.0462 170.21 38.5476C169.705 38.0429 169.456 37.4304 169.462 36.7102C169.456 36.0085 169.705 35.4084 170.21 34.9098C170.721 34.4112 171.333 34.1619 172.047 34.1619C172.724 34.1619 173.321 34.4112 173.838 34.9098C174.362 35.4084 174.626 36.0085 174.632 36.7102C174.626 37.1903 174.5 37.6274 174.254 38.0213C174.014 38.4091 173.7 38.7199 173.312 38.9538C172.924 39.1816 172.503 39.2955 172.047 39.2955Z" fill="white"/>
</g>
<defs>
<clipPath id="clip0_17_5">
<rect width="209.08" height="60" fill="white"/>
</clipPath>
</defs>
</svg>
