<svg width="87" height="25" viewBox="0 0 87 25" fill="none" xmlns="http://www.w3.org/2000/svg">
<g clip-path="url(#clip0_24_22)">
<mask id="mask0_24_22" style="mask-type:luminance" maskUnits="userSpaceOnUse" x="0" y="1" width="21" height="24">
<path d="M20.7501 1H0.5V24.143H20.7501V1Z" fill="white"/>
</mask>
<g mask="url(#mask0_24_22)">
<path d="M16.4108 8.23217V6.78574C16.4108 3.59545 13.8153 1 10.625 1C7.43475 1 4.83931 3.59545 4.83931 6.78574V8.23217H0.5V20.5269C0.5 22.524 2.11897 24.143 4.11609 24.143H17.134C19.1311 24.143 20.7501 22.524 20.7501 20.5269V8.23217H16.4108ZM7.73218 6.78574C7.73218 5.19059 9.0299 3.89287 10.625 3.89287C12.2202 3.89287 13.5179 5.19059 13.5179 6.78574V8.23217H7.73218V6.78574ZM14.9644 12.2099C14.3652 12.2099 13.8795 11.7242 13.8795 11.125C13.8795 10.5259 14.3652 10.0402 14.9644 10.0402C15.5635 10.0402 16.0492 10.5259 16.0492 11.125C16.0492 11.7242 15.5635 12.2099 14.9644 12.2099ZM6.28574 12.2099C5.6866 12.2099 5.20091 11.7242 5.20091 11.125C5.20091 10.5259 5.6866 10.0402 6.28574 10.0402C6.88488 10.0402 7.37057 10.5259 7.37057 11.125C7.37057 11.7242 6.88488 12.2099 6.28574 12.2099Z" fill="white"/>
</g>
<path d="M26.9553 4.90909V2.36364H37.0689V4.90909H33.5689V14H30.4553V4.90909H26.9553ZM48.9837 8.18182C48.9837 9.47727 48.7318 10.5701 48.228 11.4602C47.7242 12.3466 47.0443 13.0189 46.1882 13.4773C45.3321 13.9318 44.3776 14.1591 43.3246 14.1591C42.264 14.1591 41.3056 13.9299 40.4496 13.4716C39.5973 13.0095 38.9193 12.3352 38.4155 11.4489C37.9155 10.5587 37.6655 9.4697 37.6655 8.18182C37.6655 6.88636 37.9155 5.79545 38.4155 4.90909C38.9193 4.01894 39.5973 3.34659 40.4496 2.89205C41.3056 2.43371 42.264 2.20455 43.3246 2.20455C44.3776 2.20455 45.3321 2.43371 46.1882 2.89205C47.0443 3.34659 47.7242 4.01894 48.228 4.90909C48.7318 5.79545 48.9837 6.88636 48.9837 8.18182ZM45.7337 8.18182C45.7337 7.48485 45.6409 6.89773 45.4553 6.42045C45.2734 5.93939 45.0026 5.57576 44.6428 5.32955C44.2867 5.07955 43.8473 4.95455 43.3246 4.95455C42.8018 4.95455 42.3606 5.07955 42.0007 5.32955C41.6446 5.57576 41.3738 5.93939 41.1882 6.42045C41.0064 6.89773 40.9155 7.48485 40.9155 8.18182C40.9155 8.87879 41.0064 9.4678 41.1882 9.94886C41.3738 10.4261 41.6446 10.7898 42.0007 11.0398C42.3606 11.286 42.8018 11.4091 43.3246 11.4091C43.8473 11.4091 44.2867 11.286 44.6428 11.0398C45.0026 10.7898 45.2734 10.4261 45.4553 9.94886C45.6409 9.4678 45.7337 8.87879 45.7337 8.18182ZM54.9226 14H50.4453V2.36364H54.8771C56.0741 2.36364 57.1082 2.59659 57.9794 3.0625C58.8544 3.52462 59.5286 4.19129 60.0021 5.0625C60.4794 5.92992 60.718 6.9697 60.718 8.18182C60.718 9.39394 60.4813 10.4356 60.0078 11.3068C59.5343 12.1742 58.8639 12.8409 57.9964 13.3068C57.129 13.7689 56.1044 14 54.9226 14ZM53.6044 11.3182H54.8089C55.3847 11.3182 55.8752 11.2254 56.2805 11.0398C56.6896 10.8542 57.0002 10.5341 57.2124 10.0795C57.4283 9.625 57.5362 8.99242 57.5362 8.18182C57.5362 7.37121 57.4264 6.73864 57.2067 6.28409C56.9908 5.82954 56.6726 5.50947 56.2521 5.32386C55.8355 5.13826 55.3241 5.04545 54.718 5.04545H53.6044V11.3182ZM64.468 14H61.0589L64.8999 2.36364H69.218L73.0589 14H69.6499L67.1044 5.56818H67.0135L64.468 14ZM63.8317 9.40909H70.2408V11.7727H63.8317V9.40909ZM72.5149 2.36364H76.0376L78.3104 7.09091H78.4013L80.674 2.36364H84.1967L79.924 10.3409V14H76.7876V10.3409L72.5149 2.36364Z" fill="white"/>
<path d="M28.0374 24V16.7273H32.8527V17.995H29.575V19.728H32.5331V20.9957H29.575V24H28.0374ZM40.887 24V16.7273H43.7563C44.3055 16.7273 44.7743 16.8255 45.1626 17.022C45.5532 17.2161 45.8503 17.492 46.0539 17.8494C46.2599 18.2045 46.3628 18.6224 46.3628 19.103C46.3628 19.5859 46.2587 20.0014 46.0503 20.3494C45.842 20.6951 45.5402 20.9602 45.1448 21.1449C44.7518 21.3295 44.276 21.4219 43.7172 21.4219H41.7961V20.1861H43.4687C43.7622 20.1861 44.0061 20.1458 44.2002 20.0653C44.3943 19.9848 44.5387 19.8641 44.6334 19.7031C44.7305 19.5421 44.779 19.3421 44.779 19.103C44.779 18.8615 44.7305 18.6579 44.6334 18.4922C44.5387 18.3265 44.3931 18.201 44.1966 18.1158C44.0025 18.0282 43.7575 17.9844 43.4616 17.9844H42.4246V24H40.887ZM44.8145 20.6903L46.6221 24H44.9246L43.1562 20.6903H44.8145ZM58.9417 16.7273H60.4793V21.4503C60.4793 21.9806 60.3527 22.4446 60.0993 22.8423C59.8484 23.2401 59.4968 23.5502 59.0447 23.7727C58.5925 23.9929 58.0657 24.103 57.4644 24.103C56.8607 24.103 56.3328 23.9929 55.8806 23.7727C55.4284 23.5502 55.0769 23.2401 54.8259 22.8423C54.575 22.4446 54.4495 21.9806 54.4495 21.4503V16.7273H55.9871V21.3189C55.9871 21.5959 56.0475 21.8421 56.1682 22.0575C56.2913 22.273 56.4642 22.4422 56.6867 22.5653C56.9092 22.6884 57.1685 22.75 57.4644 22.75C57.7627 22.75 58.0219 22.6884 58.2421 22.5653C58.4646 22.4422 58.6363 22.273 58.757 22.0575C58.8801 21.8421 58.9417 21.5959 58.9417 21.3189V16.7273ZM70.282 16.7273V24H68.7444V16.7273H70.282ZM78.2702 17.995V16.7273H84.2432V17.995H82.0166V24H80.4967V17.995H78.2702Z" fill="white"/>
</g>
<defs>
<clipPath id="clip0_24_22">
<rect width="87" height="25" fill="white"/>
</clipPath>
</defs>
</svg>
